<svg width="76" height="77" viewBox="0 0 76 77" fill="none" xmlns="http://www.w3.org/2000/svg">
<g filter="url(#filter0_d_837_16)">
<path d="M14.5483 7.30679C15.2168 7.32439 15.8323 7.67491 16.1884 8.24087L33.0502 35.0354C33.4063 35.6014 33.4561 36.3079 33.1827 36.9182L28.7613 46.7895C28.1083 48.2474 26.0941 48.3892 25.2433 47.0372L1.99039 10.0867C1.1396 8.73472 2.1389 6.98013 3.73574 7.02216L14.5483 7.30679Z" fill="#1EA0EC"/>
</g>
<g filter="url(#filter1_d_837_16)">
<path d="M60.8315 24.1493C60.4562 24.7027 59.8291 25.032 59.1604 25.0267L27.5029 24.7761C26.8342 24.7708 26.2124 24.4317 25.8459 23.8724L19.9175 14.8254C19.0419 13.4894 20.0088 11.7167 21.6061 11.7293L65.263 12.0749C66.8603 12.0875 67.799 13.8753 66.9024 15.1973L60.8315 24.1493Z" fill="#E13DB1"/>
</g>
<g filter="url(#filter2_d_837_16)">
<path d="M20.3339 57.7444C20.0716 57.1293 20.1341 56.4238 20.5004 55.8644L37.8433 29.3787C38.2097 28.8193 38.8313 28.4799 39.5 28.4744L50.316 28.3851C51.9133 28.3719 52.8808 30.1443 52.0057 31.4807L28.0893 68.0052C27.2142 69.3416 25.2029 69.1634 24.5764 67.6941L20.3339 57.7444Z" fill="#A400E6"/>
</g>
<defs>
<filter id="filter0_d_837_16" x="1.67969" y="7.02148" width="39.6777" height="48.9507" filterUnits="userSpaceOnUse" color-interpolation-filters="sRGB">
<feFlood flood-opacity="0" result="BackgroundImageFix"/>
<feColorMatrix in="SourceAlpha" type="matrix" values="0 0 0 0 0 0 0 0 0 0 0 0 0 0 0 0 0 0 127 0" result="hardAlpha"/>
<feOffset dx="4" dy="4"/>
<feGaussianBlur stdDeviation="2"/>
<feComposite in2="hardAlpha" operator="out"/>
<feColorMatrix type="matrix" values="0 0 0 0 0 0 0 0 0 0 0 0 0 0 0 0 0 0 0.42 0"/>
<feBlend mode="normal" in2="BackgroundImageFix" result="effect1_dropShadow_837_16"/>
<feBlend mode="normal" in="SourceGraphic" in2="effect1_dropShadow_837_16" result="shape"/>
</filter>
<filter id="filter1_d_837_16" x="19.5869" y="11.7292" width="55.6636" height="21.2976" filterUnits="userSpaceOnUse" color-interpolation-filters="sRGB">
<feFlood flood-opacity="0" result="BackgroundImageFix"/>
<feColorMatrix in="SourceAlpha" type="matrix" values="0 0 0 0 0 0 0 0 0 0 0 0 0 0 0 0 0 0 127 0" result="hardAlpha"/>
<feOffset dx="4" dy="4"/>
<feGaussianBlur stdDeviation="2"/>
<feComposite in2="hardAlpha" operator="out"/>
<feColorMatrix type="matrix" values="0 0 0 0 0 0 0 0 0 0 0 0 0 0 0 0 0 0 0.42 0"/>
<feBlend mode="normal" in2="BackgroundImageFix" result="effect1_dropShadow_837_16"/>
<feBlend mode="normal" in="SourceGraphic" in2="effect1_dropShadow_837_16" result="shape"/>
</filter>
<filter id="filter2_d_837_16" x="20.1738" y="28.385" width="40.1621" height="48.5247" filterUnits="userSpaceOnUse" color-interpolation-filters="sRGB">
<feFlood flood-opacity="0" result="BackgroundImageFix"/>
<feColorMatrix in="SourceAlpha" type="matrix" values="0 0 0 0 0 0 0 0 0 0 0 0 0 0 0 0 0 0 127 0" result="hardAlpha"/>
<feOffset dx="4" dy="4"/>
<feGaussianBlur stdDeviation="2"/>
<feComposite in2="hardAlpha" operator="out"/>
<feColorMatrix type="matrix" values="0 0 0 0 0 0 0 0 0 0 0 0 0 0 0 0 0 0 0.42 0"/>
<feBlend mode="normal" in2="BackgroundImageFix" result="effect1_dropShadow_837_16"/>
<feBlend mode="normal" in="SourceGraphic" in2="effect1_dropShadow_837_16" result="shape"/>
</filter>
</defs>
</svg>
