<svg width="462" height="156" viewBox="0 0 462 156" fill="none" xmlns="http://www.w3.org/2000/svg">
<g filter="url(#filter0_d_1005_14)">
<path d="M34.8894 15.5534C35.5579 15.571 36.1733 15.9215 36.5295 16.4874L73.3131 74.9392C73.6693 75.5052 73.719 76.2117 73.4457 76.822L61.9565 102.473C61.3036 103.931 59.2893 104.072 58.4386 102.721L5.04745 17.8783C4.19666 16.5263 5.19596 14.7717 6.79279 14.8137L34.8894 15.5534Z" fill="#1EA0EC"/>
<path d="M130.543 51.9835C130.168 52.5369 129.541 52.8662 128.872 52.8609L59.8118 52.3143C59.1431 52.309 58.5213 51.9698 58.1548 51.4105L42.7498 27.902C41.8742 26.5659 42.8411 24.7932 44.4384 24.8058L144.679 25.5992C146.276 25.6119 147.215 27.3997 146.318 28.7217L130.543 51.9835Z" fill="#E13DB1"/>
<path d="M45.4287 120.687C45.1664 120.072 45.2289 119.366 45.5952 118.807L83.4284 61.0288C83.7947 60.4694 84.4164 60.13 85.0851 60.1245L113.19 59.8924C114.788 59.8792 115.755 61.6516 114.88 62.988L59.9656 146.852C59.0906 148.189 57.0792 148.01 56.4527 146.541L45.4287 120.687Z" fill="#A400E6"/>
<g filter="url(#filter1_d_1005_14)">
<path d="M78.542 70.1293V44.3693H84.982V54.3693L93.862 44.3693H101.222L92.022 54.8893L101.782 70.1293H94.902L88.022 59.0093L84.982 62.3293V70.1293H78.542ZM121.465 70.1293V44.3693H127.905V70.1293H121.465ZM148.373 70.1293V44.3693H161.973C164.56 44.3693 166.507 44.9827 167.813 46.2093C169.147 47.436 169.813 49.1693 169.813 51.4093C169.813 52.7693 169.547 53.916 169.013 54.8493C168.507 55.756 167.827 56.4627 166.973 56.9693C168.147 57.396 169.067 58.0227 169.733 58.8493C170.4 59.676 170.733 60.916 170.733 62.5693C170.733 65.0227 170.013 66.9027 168.573 68.2093C167.133 69.4893 165.067 70.1293 162.373 70.1293H148.373ZM154.813 54.8493H160.053C161.173 54.8493 161.987 54.596 162.493 54.0893C163 53.5827 163.253 52.876 163.253 51.9693C163.253 50.9827 163 50.2493 162.493 49.7693C161.987 49.2627 161.067 49.0093 159.733 49.0093H154.813V54.8493ZM154.813 65.5293H160.693C161.867 65.5293 162.733 65.2893 163.293 64.8093C163.88 64.3293 164.173 63.476 164.173 62.2493C164.173 61.2627 163.893 60.5293 163.333 60.0493C162.773 59.5427 161.813 59.2893 160.453 59.2893H154.813V65.5293ZM190.398 70.1293V44.3693H209.398V49.3293H196.838V54.7293H207.918V59.7693H196.838V65.1693H209.398V70.1293H190.398ZM228.869 70.1293V44.3693H241.749C244.789 44.3693 247.029 45.1693 248.469 46.7693C249.909 48.3693 250.629 50.516 250.629 53.2093C250.629 54.9427 250.189 56.4627 249.309 57.7693C248.429 59.076 247.229 60.0493 245.709 60.6893C246.082 60.9827 246.375 61.316 246.589 61.6893C246.829 62.036 247.082 62.5293 247.349 63.1693L250.389 70.1293H243.669L240.789 63.5693C240.549 63.0093 240.242 62.6093 239.869 62.3693C239.495 62.1027 238.962 61.9693 238.269 61.9693H235.309V70.1293H228.869ZM235.309 57.0093H240.069C241.322 57.0093 242.295 56.7027 242.989 56.0893C243.709 55.4493 244.069 54.4893 244.069 53.2093C244.069 50.6227 242.829 49.3293 240.349 49.3293H235.309V57.0093ZM270.308 70.1293V44.3693H281.468C284.081 44.3693 286.281 44.8093 288.068 45.6893C289.854 46.5427 291.214 47.9293 292.148 49.8493C293.081 51.7427 293.548 54.2627 293.548 57.4093C293.548 61.836 292.521 65.0627 290.468 67.0893C288.441 69.116 285.441 70.1293 281.468 70.1293H270.308ZM276.748 65.1693H280.588C281.974 65.1693 283.134 64.9693 284.068 64.5693C285.028 64.1427 285.748 63.3693 286.228 62.2493C286.734 61.1293 286.988 59.516 286.988 57.4093C286.988 55.276 286.761 53.636 286.308 52.4893C285.881 51.316 285.188 50.5027 284.228 50.0493C283.294 49.5693 282.081 49.3293 280.588 49.3293H276.748V65.1693ZM313.231 70.1293V44.3693H326.111C329.151 44.3693 331.391 45.1693 332.831 46.7693C334.271 48.3693 334.991 50.516 334.991 53.2093C334.991 54.9427 334.551 56.4627 333.671 57.7693C332.791 59.076 331.591 60.0493 330.071 60.6893C330.444 60.9827 330.738 61.316 330.951 61.6893C331.191 62.036 331.444 62.5293 331.711 63.1693L334.751 70.1293H328.031L325.151 63.5693C324.911 63.0093 324.604 62.6093 324.231 62.3693C323.858 62.1027 323.324 61.9693 322.631 61.9693H319.671V70.1293H313.231ZM319.671 57.0093H324.431C325.684 57.0093 326.658 56.7027 327.351 56.0893C328.071 55.4493 328.431 54.4893 328.431 53.2093C328.431 50.6227 327.191 49.3293 324.711 49.3293H319.671V57.0093ZM366.124 70.5293C361.937 70.5293 358.751 69.4627 356.564 67.3293C354.377 65.196 353.284 61.876 353.284 57.3693C353.284 52.596 354.377 49.1693 356.564 47.0893C358.751 45.0093 361.937 43.9693 366.124 43.9693C370.311 43.9693 373.497 45.0093 375.684 47.0893C377.871 49.1693 378.964 52.596 378.964 57.3693C378.964 61.876 377.871 65.196 375.684 67.3293C373.497 69.4627 370.311 70.5293 366.124 70.5293ZM366.124 65.0493C368.284 65.0493 369.857 64.436 370.844 63.2093C371.857 61.956 372.364 60.0093 372.364 57.3693C372.364 54.4893 371.857 52.4627 370.844 51.2893C369.857 50.0893 368.284 49.4893 366.124 49.4893C363.937 49.4893 362.337 50.0893 361.324 51.2893C360.337 52.4627 359.844 54.4893 359.844 57.3693C359.844 60.0093 360.337 61.956 361.324 63.2093C362.337 64.436 363.937 65.0493 366.124 65.0493ZM398.648 70.1293V44.3693H405.008L412.008 58.6493L418.968 44.3693H425.288V70.1293H418.848V55.3293L413.768 65.7293H410.208L405.088 55.3293V70.1293H398.648Z" fill="white"/>
</g>
</g>
<defs>
<filter id="filter0_d_1005_14" x="0.736816" y="14.813" width="428.551" height="140.944" filterUnits="userSpaceOnUse" color-interpolation-filters="sRGB">
<feFlood flood-opacity="0" result="BackgroundImageFix"/>
<feColorMatrix in="SourceAlpha" type="matrix" values="0 0 0 0 0 0 0 0 0 0 0 0 0 0 0 0 0 0 127 0" result="hardAlpha"/>
<feOffset dy="4"/>
<feGaussianBlur stdDeviation="2"/>
<feComposite in2="hardAlpha" operator="out"/>
<feColorMatrix type="matrix" values="0 0 0 0 0 0 0 0 0 0 0 0 0 0 0 0 0 0 0.25 0"/>
<feBlend mode="normal" in2="BackgroundImageFix" result="effect1_dropShadow_1005_14"/>
<feBlend mode="normal" in="SourceGraphic" in2="effect1_dropShadow_1005_14" result="shape"/>
</filter>
<filter id="filter1_d_1005_14" x="74.542" y="43.9694" width="354.746" height="34.56" filterUnits="userSpaceOnUse" color-interpolation-filters="sRGB">
<feFlood flood-opacity="0" result="BackgroundImageFix"/>
<feColorMatrix in="SourceAlpha" type="matrix" values="0 0 0 0 0 0 0 0 0 0 0 0 0 0 0 0 0 0 127 0" result="hardAlpha"/>
<feOffset dy="4"/>
<feGaussianBlur stdDeviation="2"/>
<feComposite in2="hardAlpha" operator="out"/>
<feColorMatrix type="matrix" values="0 0 0 0 0 0 0 0 0 0 0 0 0 0 0 0 0 0 0.25 0"/>
<feBlend mode="normal" in2="BackgroundImageFix" result="effect1_dropShadow_1005_14"/>
<feBlend mode="normal" in="SourceGraphic" in2="effect1_dropShadow_1005_14" result="shape"/>
</filter>
</defs>
</svg>
